<svg xmlns="http://www.w3.org/2000/svg" xmlns:xlink="http://www.w3.org/1999/xlink" width="385" height="385" viewBox="0 0 385 385"><defs><style>.a,.j{fill:#305bc9;}.b{clip-path:url(#a);}.c,.d,.e,.f{fill:#fff;}.c{opacity:0.08;}.d{opacity:0.12;}.e{opacity:0.18;}.g{fill:#d6d6d6;}.h{fill:#979797;}.i{fill:#012555;}.j{stroke:#012656;stroke-width:2px;}</style><clipPath id="a"><circle class="a" cx="192.5" cy="192.5" r="192.5" transform="translate(281 2614)"/></clipPath></defs><g transform="translate(-281 -2614)"><circle class="a" cx="192.5" cy="192.5" r="192.5" transform="translate(281 2614)"/><g class="b"><g transform="translate(319.254 2637.98)"><path class="c" d="M653.113,457.39a155.2,155.2,0,1,1,109.718-45.458A154.187,154.187,0,0,1,653.113,457.39Z" transform="translate(-497.9 -147)"/><path class="d" d="M687.268,471.562a135.189,135.189,0,1,1,95.635-39.6A134.329,134.329,0,0,1,687.268,471.562Z" transform="translate(-532.055 -181.155)"/><path class="e" d="M721.45,485.767A115.279,115.279,0,1,1,836.736,370.481,115.288,115.288,0,0,1,721.45,485.767Z" transform="translate(-566.237 -215.304)"/><path class="f" d="M755.613,499.964a95.34,95.34,0,1,1,67.394-27.909A95.342,95.342,0,0,1,755.613,499.964Z" transform="translate(-600.399 -249.447)"/><ellipse class="f" cx="88.667" cy="88.667" rx="88.667" ry="88.667" transform="translate(66.546 66.51)"/></g><path class="g" d="M779.638,578.5l3.724,18.533s9.45-.317,5.806,9.483c0,0,3.484-1.833,5.387.952,2.548-2.5,7.838-4.935,11-1.269,5.451-5.394,12.1-8.637,17.643,2.785,3.29-2.5,6.064-1.586,6.838-.846,0,0,4.842-6.387,8.234-2.96s5.948,8.037,5.333,16.669-8.764,16.192-9.667,17.144-115.2-.383-115.2-.383-9.547-8.907-9.305-16.457,2.341-15.612,8.6-16.542c3.258-1.727,5.526,2.389,6.977,4.61,2-2.045,5.935-3.455,8.257-1.551.742-3.349,3.548-8,8.064-5.464,2.742-4.089,10.805-7.4,14.869,1.128,2.1-4.2,4.29-4.266,5.483-3.948.742-2.08,1.032-4.3,4.483-2.785.839-6.487,4.952-19.1,4.952-19.1Z" transform="translate(-302.043 2207.078)"/><ellipse class="h" cx="4.032" cy="8.515" rx="4.032" ry="8.515" transform="translate(469.208 2776.547)"/><path class="i" d="M904.727,469.839A34.427,34.427,0,0,0,892.4,432.9a34.309,34.309,0,0,0-13.661,27.439,33.635,33.635,0,0,0,1.3,9.382,16.054,16.054,0,0,0-4.436,11.07,19.938,19.938,0,0,0,.157,2.2,16.094,16.094,0,0,1,6.909-6.634,34.185,34.185,0,0,0,5.378,7.537h8.675a34.658,34.658,0,0,0,5.378-7.458,16.29,16.29,0,0,1,6.791,6.556,20.068,20.068,0,0,0,.118-2.2A16.134,16.134,0,0,0,904.727,469.839Zm-12.4-6.045a5.417,5.417,0,1,1,5.378-5.378,5.417,5.417,0,0,1-5.378,5.378Z" transform="translate(-419.08 2298.17)"/><path class="j" d="M404.552,779.509s-90.039-45.732-140.362-58.095-72.538-13.329-126.019,0S2.7,777.471,2.7,777.471V905.236H404.552Z" transform="translate(269.823 2118.752)"/></g></g></svg>