<svg xmlns="http://www.w3.org/2000/svg" width="385" height="417.249" viewBox="0 0 385 417.249"><defs><style>.a,.d{fill:#305bc9;}.b,.e{fill:#fff;}.b{opacity:0.5;}.c{fill:#012656;}.d{stroke:#012656;}.f{opacity:0.6;}</style></defs><g transform="translate(-281 -3591.751)"><circle class="a" cx="192.5" cy="192.5" r="192.5" transform="translate(281 3624)"/><g transform="translate(247.939 3468.652)"><g transform="translate(120.3 123.1)"><g transform="translate(109.279 157.354)"><path class="b" d="M214.442,244.552c4.194-4.194,9.586-9.736,4.494-15.129-1.5-1.5-3.595-1.5-5.842-.9-5.243-.3-10.335,5.842-13.181,10.036-4.494,6.441-7.789,14.829-6.291,22.468,1.348,6.441,8.089,12.582,14.38,7.04C215.491,261.328,207.7,251.442,214.442,244.552Z" transform="translate(-193.256 -228.15)"/><path class="b" d="M207.909,263.843c-.449-2.4-2.546-5.243-5.243-5.243-11.534.3-7.04,20.072,3.146,12.133C207.759,269.235,208.358,266.239,207.909,263.843Z" transform="translate(-191.964 -212.989)"/></g><path d="M253.057,337.543c0,10.635-13.481,29.508-50.629,29.508-36.4,0-50.629-15.129-50.629-29.508,0-2.846,22.618-5.243,50.629-5.243S253.057,334.7,253.057,337.543Z" transform="translate(-101.841 -17.553)"/><path class="c" d="M315.925,257.357c0,93.768-32.954,154.133-97.812,154.133C157,411.49,120.3,357.267,120.3,257.357c0-16.627,43.738-30.257,97.812-30.257C272.036,227.1,315.925,240.731,315.925,257.357Z" transform="translate(-120.3 -71.319)"/><path class="c" d="M227.2,396.393c-11.833-6.441-26.363-12.133-35.949-28.909-13.181-22.768-27.112-66.057-5.243-89.873,18.873-20.671-65.608-45.236-65.608-28.46,0,100.059,36.7,154.133,97.812,154.133a97.716,97.716,0,0,0,21.42-2.4C235.738,399.089,230.645,398.34,227.2,396.393Z" transform="translate(-120.25 -63.112)"/><path class="c" d="M184.36,390.092c-18.724-17.376-33.253-39.395-40.443-63.96-7.639-26.063-7.19-55.272,2.247-80.736-13.93-3-25.764-2.546-25.764,3.745,0,88.376,28.759,140.952,77.591,152.036A132.3,132.3,0,0,1,184.36,390.092Z" transform="translate(-120.25 -63.102)"/><path class="d" d="M315.925,257.357c0,16.627-43.738,30.257-97.812,30.257-53.924,0-97.812-13.481-97.812-30.257,0-16.627,43.738-30.257,97.812-30.257C272.036,227.1,315.925,240.731,315.925,257.357Z" transform="translate(-120.3 -71.319)"/><g transform="translate(23.667 185.738)"><path class="e" d="M284.391,258.484C269.562,251.743,242,247.1,210.246,247.1c-31.606,0-59.316,4.643-74.146,11.384,14.829,6.741,42.39,11.384,74.146,11.384C241.851,269.868,269.562,265.225,284.391,258.484Z" transform="translate(-136.1 -247.1)"/></g><g transform="translate(23.517 187.985)"><path class="e" d="M210.445,266.874c-8.688-1.049-19.922-2.247-27.711-6.74-4.494-2.546-9.287-7.04-10.785-11.534-14.979,1.947-27.561,5.093-35.949,8.987,14.829,6.74,42.39,11.384,74.146,11.384,8.688,0,17.076-.3,25.015-1.049A151.692,151.692,0,0,1,210.445,266.874Z" transform="translate(-136 -248.6)"/></g><path class="c" d="M274.232,262.933c-8.538-1.2-9.886-12.133-9.886-12.133s-37.9,54.224-40.293,75.943c-3,25.614,3.146,47.633,13.331,35.949,11.384-13.181,36.7-5.692,53.774-35.949C301.344,308.918,305.538,267.277,274.232,262.933Zm3.3,56.62c-6.89,17.525-26.363,22.169-25.165,11.534,1.048-9.587-18.574,6.291-16.776-9.137,1.5-13.032,26.213-32.2,26.213-32.2s4.044-12.882,10.036-9.287C288.462,290.494,282.171,308.019,277.528,319.553Z" transform="translate(-69.021 -59.519)"/><path class="c" d="M217.3,274s40.443-17.825,42.39-8.388c9.437,48.682-31.605,101.257-31.605,101.257s9.437-25.015,9.137-67.405C236.922,271.308,217.3,274,217.3,274Z" transform="translate(-72.005 -53.515)"/><path class="f" d="M192.294,321.474c-14.342-4.681-28.266-9.939-38-20.424-12.732-14.08,1.2-23.517,11.534-27.561,12.882-4.943,25.614-9.137,38.5-13.331,10.036-3.3,26.063-8.388,33.253-17.975,12.432-16.627-4.793-16.926-15.129-17.525-6.741-.449-32.5-.6-28.46-15.728,2.7-9.886,21.57-18.274,28.46-21.27,11.084-4.793,22.918-9.586,32.954-17.825,8.388-6.89,13.481-17.975,7.939-29.508C258.4,130.14,240.121,129.99,233.38,123.1c21.42.449,63.81,15.578,67.7,45.236,2.7,20.072-11.684,23.517-25.314,28.16-8.089,2.7-24.266,11.234-22.768,20.371,1.348,9.137,19.622.6,24.416,12.283,6.141,14.829-2.546,32.354-12.283,39.095a86.519,86.519,0,0,1-26.063,12.283c-13.481,3.745-29.508,3.445-42.241,10.186-19.473,10.335-1.049,33.1,14.829,29.059C212.11,319.474,206.637,326.155,192.294,321.474Z" transform="translate(-105.91 -123.1)"/></g></g></g></svg>