<svg xmlns="http://www.w3.org/2000/svg" width="386.871" height="385" viewBox="0 0 386.871 385"><defs><style>.a{fill:#305bc9;}.b{stroke:#000;stroke-width:2px;}.c{fill:#012656;}.d{fill:#fff;}.e{fill:red;}.f{fill:#fd0;}.g{fill:#06bd00;}</style></defs><g transform="translate(-280 -4634)"><circle class="a" cx="192.5" cy="192.5" r="192.5" transform="translate(281 4634)"/><g transform="translate(-264.779 4520.732)"><path class="b" d="M931.814,499.133H649.62V321.083a9.431,9.431,0,0,1,9.432-9.432H922.382a9.431,9.431,0,0,1,9.432,9.432Z" transform="translate(-52.506 -75.481)"/><path class="b" d="M600.5,690.229l-52.215-.489a2.367,2.367,0,0,0-2.506,2.289q.156,7.037.316,14.08a2.252,2.252,0,0,0,1.523,2.022q7.7,2.914,15.39,5.824a2.691,2.691,0,0,0,.949.173q175.6.541,351.2,1.088a2.727,2.727,0,0,0,1.142-.247q6.5-3.018,13-6.031a2.219,2.219,0,0,0,1.35-2.042l-.321-14.258a2.375,2.375,0,0,0-2.482-2.2Z" transform="translate(0 -266.656)"/><path class="a" d="M926.511,716.34H859.178a1.927,1.927,0,0,1-1.928-1.928v-.094a1.927,1.927,0,0,1,1.928-1.928h67.328a1.927,1.927,0,0,1,1.928,1.928v.094A1.923,1.923,0,0,1,926.511,716.34Z" transform="translate(-157.49 -278.109)"/><path class="c" d="M0,0H256.082V164.13H0Z" transform="translate(608.796 250.372)"/><rect class="a" width="256.082" height="13.348" transform="translate(608.796 250.372)"/><path class="a" d="M790.99,406.371h-90.5a1.236,1.236,0,0,1-1.236-1.236v-.529a1.236,1.236,0,0,1,1.236-1.236h90.5a1.236,1.236,0,0,1,1.236,1.236v.529A1.236,1.236,0,0,1,790.99,406.371Z" transform="translate(-77.6 -121.858)"/><path class="d" d="M777.192,427H700.486a1.236,1.236,0,0,1-1.236-1.236v-.529A1.236,1.236,0,0,1,700.486,424h76.706a1.236,1.236,0,0,1,1.236,1.236v.529A1.236,1.236,0,0,1,777.192,427Z" transform="translate(-77.6 -132.289)"/><path class="a" d="M751.4,451.261H700.486a1.236,1.236,0,0,1-1.236-1.236V449.5a1.236,1.236,0,0,1,1.236-1.236H751.4a1.236,1.236,0,0,1,1.236,1.236v.529A1.233,1.233,0,0,1,751.4,451.261Z" transform="translate(-77.6 -144.556)"/><path class="d" d="M751.4,476.751H700.486a1.236,1.236,0,0,1-1.236-1.236v-.529a1.236,1.236,0,0,1,1.236-1.236H751.4a1.236,1.236,0,0,1,1.236,1.236v.529A1.236,1.236,0,0,1,751.4,476.751Z" transform="translate(-77.6 -157.444)"/><path class="d" d="M894.844,427H867.926a1.236,1.236,0,0,1-1.236-1.236v-.529A1.236,1.236,0,0,1,867.926,424h26.918a1.236,1.236,0,0,1,1.236,1.236v.529A1.236,1.236,0,0,1,894.844,427Z" transform="translate(-162.264 -132.289)"/><path class="a" d="M843.884,451.261H816.966a1.236,1.236,0,0,1-1.236-1.236V449.5a1.236,1.236,0,0,1,1.236-1.236h26.918a1.236,1.236,0,0,1,1.236,1.236v.529A1.233,1.233,0,0,1,843.884,451.261Z" transform="translate(-136.496 -144.556)"/><path class="a" d="M1027.737,406.371H897.046a1.236,1.236,0,0,1-1.236-1.236v-.529a1.236,1.236,0,0,1,1.236-1.236h130.691a1.236,1.236,0,0,1,1.236,1.236v.529A1.236,1.236,0,0,1,1027.737,406.371Z" transform="translate(-176.988 -121.858)"/><path class="a" d="M1013.177,451.261H882.486a1.236,1.236,0,0,1-1.236-1.236V449.5a1.236,1.236,0,0,1,1.236-1.236h130.691a1.236,1.236,0,0,1,1.236,1.236v.529A1.233,1.233,0,0,1,1013.177,451.261Z" transform="translate(-169.626 -144.556)"/><path class="d" d="M947.656,476.751H816.966a1.236,1.236,0,0,1-1.236-1.236v-.529a1.236,1.236,0,0,1,1.236-1.236H947.656a1.236,1.236,0,0,1,1.236,1.236v.529A1.236,1.236,0,0,1,947.656,476.751Z" transform="translate(-136.496 -157.444)"/><path class="a" d="M698.986,598.311h90.5a1.236,1.236,0,0,0,1.236-1.236v-.529a1.236,1.236,0,0,0-1.236-1.236h-90.5a1.236,1.236,0,0,0-1.236,1.236v.529A1.236,1.236,0,0,0,698.986,598.311Z" transform="translate(-76.842 -218.909)"/><path class="d" d="M766.616,532.561h76.706a1.236,1.236,0,0,0,1.236-1.236V530.8a1.236,1.236,0,0,0-1.236-1.236H766.616a1.236,1.236,0,0,0-1.236,1.236v.529A1.236,1.236,0,0,0,766.616,532.561Z" transform="translate(-111.038 -185.664)"/><path class="a" d="M1041.3,556.831h50.915a1.236,1.236,0,0,0,1.236-1.236v-.529a1.236,1.236,0,0,0-1.236-1.236H1041.3a1.236,1.236,0,0,0-1.236,1.236v.529A1.236,1.236,0,0,0,1041.3,556.831Z" transform="translate(-249.925 -197.935)"/><path class="d" d="M977.736,578.341h50.915a1.236,1.236,0,0,0,1.236-1.236v-.529a1.236,1.236,0,0,0-1.236-1.236H977.736a1.236,1.236,0,0,0-1.236,1.236v.529A1.236,1.236,0,0,0,977.736,578.341Z" transform="translate(-217.787 -208.812)"/><path class="d" d="M700.486,532.561H727.4a1.236,1.236,0,0,0,1.236-1.236V530.8a1.236,1.236,0,0,0-1.236-1.236H700.486a1.236,1.236,0,0,0-1.236,1.236v.529A1.236,1.236,0,0,0,700.486,532.561Z" transform="translate(-77.6 -185.664)"/><path class="a" d="M975.366,556.831h26.918a1.236,1.236,0,0,0,1.236-1.236v-.529a1.236,1.236,0,0,0-1.236-1.236H975.366a1.236,1.236,0,0,0-1.236,1.236v.529A1.237,1.237,0,0,0,975.366,556.831Z" transform="translate(-216.589 -197.935)"/><path class="a" d="M700.486,511.931H831.177a1.236,1.236,0,0,0,1.236-1.236v-.529a1.236,1.236,0,0,0-1.236-1.236H700.486a1.236,1.236,0,0,0-1.236,1.236v.529A1.236,1.236,0,0,0,700.486,511.931Z" transform="translate(-77.6 -175.232)"/><path class="a" d="M700.486,556.831H831.177a1.236,1.236,0,0,0,1.236-1.236v-.529a1.236,1.236,0,0,0-1.236-1.236H700.486a1.236,1.236,0,0,0-1.236,1.236v.529A1.236,1.236,0,0,0,700.486,556.831Z" transform="translate(-77.6 -197.935)"/><path class="d" d="M698.806,578.341H829.5a1.237,1.237,0,0,0,1.236-1.236v-.529a1.236,1.236,0,0,0-1.236-1.236H698.806a1.236,1.236,0,0,0-1.236,1.236v.529A1.236,1.236,0,0,0,698.806,578.341Z" transform="translate(-76.751 -208.812)"/><circle class="e" cx="2.186" cy="2.186" r="2.186" transform="translate(613.921 254.86)"/><circle class="f" cx="2.186" cy="2.186" r="2.186" transform="translate(619.243 254.86)"/><circle class="g" cx="2.186" cy="2.186" r="2.186" transform="translate(624.944 254.86)"/><path class="c" d="M830.777,196.941c-14.173,0-27.353,3.955-41.527,3.955V158.38h42.515C831.765,172.549,830.777,182.767,830.777,196.941Z" transform="translate(-127.062 3.995)"/><path class="a" d="M831.25,232.715a28.263,28.263,0,0,0,12.814-4.692,22.742,22.742,0,0,0,3.2-2.8,10.718,10.718,0,0,0,4.751,5.522c-2.086.03-5.171.138-8.9.494C837.227,231.8,831.275,232.838,831.25,232.715Z" transform="translate(-148.299 -29.802)"/><rect width="42.515" height="4.449" transform="translate(662.188 162.375)"/><rect class="c" width="42.515" height="42.515" transform="translate(724.478 162.375)"/><rect width="42.515" height="4.449" transform="translate(724.478 162.375)"/><path class="c" d="M544.239,437.941c14.173,0,27.353,3.955,41.527,3.955V399.38H543.25C543.25,413.549,544.239,423.767,544.239,437.941Z" transform="translate(244.012 -237.005)"/><path class="a" d="M566.013,473.715a28.263,28.263,0,0,1-12.814-4.692,22.725,22.725,0,0,1-3.2-2.8,10.72,10.72,0,0,1-4.751,5.522c2.086.03,5.171.138,8.9.494C560.037,472.8,565.989,473.838,566.013,473.715Z" transform="translate(243.001 -270.802)"/><rect width="42.515" height="4.449" transform="translate(829.778 166.819) rotate(180)"/><path class="d" d="M948.844,180.542H921.926a1.236,1.236,0,0,1-1.236-1.236h0a1.236,1.236,0,0,1,1.236-1.236h26.918a1.236,1.236,0,0,1,1.236,1.236h0A1.236,1.236,0,0,1,948.844,180.542Z" transform="translate(-193.523 -5.961)"/><path class="a" d="M937.034,193.542H921.926a1.236,1.236,0,0,1-1.236-1.236h0a1.236,1.236,0,0,1,1.236-1.236h15.108a1.236,1.236,0,0,1,1.236,1.236h0A1.236,1.236,0,0,1,937.034,193.542Z" transform="translate(-193.523 -13.029)"/><path class="d" d="M941.978,204.542H921.926a1.236,1.236,0,0,1-1.236-1.236h0a1.236,1.236,0,0,1,1.236-1.236h20.052a1.236,1.236,0,0,1,1.236,1.236h0A1.236,1.236,0,0,1,941.978,204.542Z" transform="translate(-193.523 -18.096)"/><path class="d" d="M815.283,176.542h-17.8a1.236,1.236,0,0,1-1.236-1.236h0a1.236,1.236,0,0,1,1.236-1.236h17.8a1.236,1.236,0,0,1,1.236,1.236h0A1.236,1.236,0,0,1,815.283,176.542Z" transform="translate(-130.602 -3.938)"/><path class="a" d="M823.193,188.542H797.486a1.236,1.236,0,0,1-1.236-1.236h0a1.236,1.236,0,0,1,1.236-1.236h25.707a1.236,1.236,0,0,1,1.236,1.236h0A1.236,1.236,0,0,1,823.193,188.542Z" transform="translate(-130.602 -10.006)"/></g></g></svg>