<svg xmlns="http://www.w3.org/2000/svg" xmlns:xlink="http://www.w3.org/1999/xlink" width="385" height="385" viewBox="0 0 385 385"><defs><style>.a{fill:#305bc9;}.b{clip-path:url(#a);}.c{fill:#09367f;}.c,.f,.j,.k,.l{stroke:#000;}.d{fill:#ededed;}.e{fill:#fdfeff;}.f,.m{fill:#eeca2f;}.g,.h{fill:none;stroke-miterlimit:10;}.g{stroke:#09367f;}.h{stroke:#2255a0;stroke-width:3px;}.i{fill:#061349;font-size:14px;font-family:WorkSans-Medium, Work Sans;font-weight:500;}.j{fill:#585757;}.k{fill:#4b86dd;}.l{fill:#012656;}.m{stroke:#012656;}</style><clipPath id="a"><circle class="a" cx="192.5" cy="192.5" r="192.5" transform="translate(281 2615)"/></clipPath></defs><g class="b" transform="translate(-281 -2615)"><circle class="a" cx="192.5" cy="192.5" r="192.5" transform="translate(281 2615)"/><g transform="matrix(0.966, -0.259, 0.259, 0.966, -256.225, 2653.316)"><path class="c" d="M765.181,484.836c.045,8.356-6.015,14.645-14.1,14.656l-185.034.257a14.626,14.626,0,0,1-14.825-14.616L549.772,216.6a14.382,14.382,0,0,1,14.668-14.531l185.033-.257c8.085-.012,14.213,6.135,14.258,14.491Z" transform="translate(0 -9.308)"/><path class="d" d="M754.875,489.875l-190.166,3.851-6.451-274.163,190.166-3.851Z" transform="translate(0.582 -13.562)"/><path class="e" d="M756.086,491.022l-190.221-.874.1-274.214,190.221.874Z" transform="translate(-1.346 -13.619)"/><path class="f" d="M715.411,185.873l-20.165.028a15.9,15.9,0,0,0,.076-1.82c-.056-10.412-9.991-19.025-22.189-19.008s-22.039,8.749-21.983,19.162a14.19,14.19,0,0,0,.095,1.727l-17.487.025c-8.871.012-16.011,9.593-15.939,22.994l113.779-.158C731.525,195.422,724.281,185.86,715.411,185.873Zm-42.8,6.572a7.275,7.275,0,1,1,6.653-7.26A7.023,7.023,0,0,1,672.612,192.444Z" transform="translate(-15.777 5.464)"/><rect class="g" width="19.412" height="19.412" rx="4.653" transform="matrix(1, 0.003, -0.003, 1, 583.112, 259.679)"/><rect class="g" width="19.412" height="19.412" rx="4.653" transform="matrix(1, 0.003, -0.003, 1, 582.911, 318.662)"/><rect class="g" width="19.412" height="19.412" rx="4.653" transform="matrix(1, 0.003, -0.003, 1, 582.72, 374.659)"/><path class="h" d="M599.88,301.779l5.96,3.754,14.234-14.138" transform="translate(-12.696 -32.006)"/><path class="h" d="M599.611,380.778l5.96,3.753,14.234-14.137" transform="translate(-12.628 -52.022)"/><path class="h" d="M599.358,454.778l5.96,3.753,14.234-14.137" transform="translate(-12.564 -70.772)"/><text class="i" transform="matrix(1, 0.003, -0.003, 1, 614.737, 273.529)"><tspan x="0" y="0">Task-1</tspan></text><text class="i" transform="matrix(1, 0.003, -0.003, 1, 614.536, 332.512)"><tspan x="0" y="0">Task-2</tspan></text><text class="i" transform="matrix(1, 0.003, -0.003, 1, 614.34, 390.002)"><tspan x="0" y="0">Task-3</tspan></text><g transform="translate(637.479 293.479)"><path class="j" d="M672.145,337.054s-5.337,4.72-4.875,5.759c0,0,.164,1.313,7.888-1.552Z" transform="translate(-667.242 -337.054)"/></g><g transform="translate(718.55 212.974)"><path class="j" d="M777.217,254.224a2.021,2.021,0,0,1,2.463-1.484c5.335,1.3,11.153-5.262,15.828-10.533a45.77,45.77,0,0,1,6.251-6.282c3.9-2.836,9.183-6.239,15.556-7.384a44.847,44.847,0,0,1,19.521,1.016c.423.107.746.194.959.235a2.093,2.093,0,0,1,2.038,1.585,2,2,0,0,1-1.514,2.427,5.153,5.153,0,0,1-2.445-.315,40.923,40.923,0,0,0-17.759-.952c-5.556,1-10.339,4.089-13.883,6.671a43.891,43.891,0,0,0-5.615,5.7c-5.4,6.085-12.112,13.658-19.859,11.772A2.065,2.065,0,0,1,777.217,254.224Z" transform="translate(-777.164 -227.89)"/></g><g transform="translate(640.932 213.573)"><path class="k" d="M671.867,310.706s58.155-45.556,134.085-80.646c0,0,14.58-1.083,5.814,10.153,0,0-49.408,38.346-137.126,75.257Z" transform="translate(-671.867 -230.031)"/></g></g><g transform="matrix(0.966, -0.259, 0.259, 0.966, -256.225, 2653.316)"><path class="l" d="M765.181,484.836c.045,8.356-6.015,14.645-14.1,14.656l-185.034.257a14.626,14.626,0,0,1-14.825-14.616L549.772,216.6a14.382,14.382,0,0,1,14.668-14.531l185.033-.257c8.085-.012,14.213,6.135,14.258,14.491Z" transform="translate(0 -9.308)"/><path class="d" d="M754.875,489.875l-190.166,3.851-6.451-274.163,190.166-3.851Z" transform="translate(0.582 -13.562)"/><path class="e" d="M756.086,491.022l-190.221-.874.1-274.214,190.221.874Z" transform="translate(-1.346 -13.619)"/><path class="m" d="M715.411,185.873l-20.165.028a15.9,15.9,0,0,0,.076-1.82c-.056-10.412-9.991-19.025-22.189-19.008s-22.039,8.749-21.983,19.162a14.19,14.19,0,0,0,.095,1.727l-17.487.025c-8.871.012-16.011,9.593-15.939,22.994l113.779-.158C731.525,195.422,724.281,185.86,715.411,185.873Zm-42.8,6.572a7.275,7.275,0,1,1,6.653-7.26A7.023,7.023,0,0,1,672.612,192.444Z" transform="translate(-15.777 5.464)"/><rect class="g" width="19.412" height="19.412" rx="4.653" transform="matrix(1, 0.003, -0.003, 1, 583.112, 259.679)"/><rect class="g" width="19.412" height="19.412" rx="4.653" transform="matrix(1, 0.003, -0.003, 1, 582.911, 318.662)"/><rect class="g" width="19.412" height="19.412" rx="4.653" transform="matrix(1, 0.003, -0.003, 1, 582.72, 374.659)"/><path class="h" d="M599.88,301.779l5.96,3.754,14.234-14.138" transform="translate(-12.696 -32.006)"/><path class="h" d="M599.611,380.778l5.96,3.753,14.234-14.137" transform="translate(-12.628 -52.022)"/><path class="h" d="M599.358,454.778l5.96,3.753,14.234-14.137" transform="translate(-12.564 -70.772)"/><text class="i" transform="matrix(1, 0.003, -0.003, 1, 614.737, 273.529)"><tspan x="0" y="0">Task-1</tspan></text><text class="i" transform="matrix(1, 0.003, -0.003, 1, 614.536, 332.512)"><tspan x="0" y="0">Task-2</tspan></text><text class="i" transform="matrix(1, 0.003, -0.003, 1, 614.34, 390.002)"><tspan x="0" y="0">Task-3</tspan></text><g transform="translate(637.479 293.479)"><path class="j" d="M672.145,337.054s-5.337,4.72-4.875,5.759c0,0,.164,1.313,7.888-1.552Z" transform="translate(-667.242 -337.054)"/></g><g transform="translate(718.55 212.974)"><path class="j" d="M777.217,254.224a2.021,2.021,0,0,1,2.463-1.484c5.335,1.3,11.153-5.262,15.828-10.533a45.77,45.77,0,0,1,6.251-6.282c3.9-2.836,9.183-6.239,15.556-7.384a44.847,44.847,0,0,1,19.521,1.016c.423.107.746.194.959.235a2.093,2.093,0,0,1,2.038,1.585,2,2,0,0,1-1.514,2.427,5.153,5.153,0,0,1-2.445-.315,40.923,40.923,0,0,0-17.759-.952c-5.556,1-10.339,4.089-13.883,6.671a43.891,43.891,0,0,0-5.615,5.7c-5.4,6.085-12.112,13.658-19.859,11.772A2.065,2.065,0,0,1,777.217,254.224Z" transform="translate(-777.164 -227.89)"/></g><g transform="translate(640.932 213.573)"><path class="k" d="M671.867,310.706s58.155-45.556,134.085-80.646c0,0,14.58-1.083,5.814,10.153,0,0-49.408,38.346-137.126,75.257Z" transform="translate(-671.867 -230.031)"/></g></g></g></svg>