<svg xmlns="http://www.w3.org/2000/svg" width="385" height="385" viewBox="0 0 385 385"><defs><style>.a{fill:#305bc9;}.b{fill:#fff;stroke:#000;}</style></defs><g transform="translate(-281 -3624)"><circle class="a" cx="192.5" cy="192.5" r="192.5" transform="translate(281 3624)"/><g transform="translate(395 3698)"><path class="b" d="M39.367,278.735a39.382,39.382,0,0,0,39.367-39.367V200H39.367a39.367,39.367,0,1,0,0,78.735Z" transform="translate(0 -42.531)"/><path class="b" d="M0,139.367A39.382,39.382,0,0,1,39.367,100H78.735v78.735H39.367A39.382,39.382,0,0,1,0,139.367Z" transform="translate(0 -21.265)"/><path class="b" d="M0,39.367A39.382,39.382,0,0,1,39.367,0H78.735V78.735H39.367A39.382,39.382,0,0,1,0,39.367Z"/><path class="b" d="M100,0h39.367a39.367,39.367,0,0,1,0,78.735H100Z" transform="translate(-21.265)"/><path class="b" d="M178.735,139.367A39.367,39.367,0,1,1,139.367,100,39.382,39.382,0,0,1,178.735,139.367Z" transform="translate(-21.265 -21.265)"/></g></g></svg>