<svg xmlns="http://www.w3.org/2000/svg" width="417.969" height="385" viewBox="0 0 417.969 385"><defs><style>.a,.j{fill:#305bc9;}.b,.c,.h,.m{fill:#012656;}.b{font-size:54px;}.b,.c,.n,.o{font-family:Montserrat-Bold, Montserrat;}.b,.c,.l,.n,.o{font-weight:700;}.c{font-size:53px;}.d{fill:#7f99b5;}.e{fill:#2a5377;}.f{fill:#5b7389;}.g{fill:#0e3451;}.h,.j,.k{stroke:#000;}.i,.l,.n,.o{fill:#fff;}.l{font-size:23px;font-family:Consolas-Bold, Consolas;}.n{font-size:19px;}.o{font-size:25px;}.p{letter-spacing:-0.01em;}</style></defs><g transform="translate(-1237.971 -4129)"><circle class="a" cx="192.5" cy="192.5" r="192.5" transform="translate(1254 4129)"/><g transform="translate(885.331 3983.333)"><g transform="translate(353.14 196.82)"><text class="b" transform="translate(172.636 41)"><tspan x="0" y="0">&lt;/&gt;</tspan></text><text class="c" transform="translate(40.395 179.091)"><tspan x="0" y="0">{ }</tspan></text><text class="c" transform="translate(248.855 281.024)"><tspan x="0" y="0">JS</tspan></text><rect class="d" width="30.059" height="2.086" transform="translate(151.289 94.179) rotate(180)"/><rect class="d" width="30.059" height="2.086" transform="translate(85.994 115.459) rotate(180)"/><rect class="d" width="16.929" height="2.086" transform="translate(148.22 115.459) rotate(180)"/><rect class="e" width="48.247" height="2.086" transform="translate(118.192 94.179) rotate(180)"/><rect class="e" width="48.247" height="2.086" transform="translate(53.524 115.459) rotate(180)"/><rect class="f" width="26.362" height="2.086" transform="translate(57.634 94.179) rotate(180)"/><rect class="f" width="40.697" height="2.086" transform="translate(129.128 115.459) rotate(180)"/><rect class="g" width="7.401" height="2.086" transform="translate(67.342 94.179) rotate(180)"/><rect class="d" width="30.059" height="2.086" transform="translate(3.846 84.432)"/><rect class="e" width="48.247" height="2.086" transform="translate(36.943 84.432)"/><rect class="f" width="26.362" height="2.086" transform="translate(97.501 84.432)"/><rect class="g" width="7.401" height="2.086" transform="translate(87.792 84.432)"/><rect class="h" width="155.135" height="88.799" transform="translate(0 40.261)"/><rect class="i" width="25.761" height="1.787" transform="translate(135.018 83.131) rotate(180)"/><rect class="a" width="25.761" height="1.787" transform="translate(75.96 89.051) rotate(180)"/><rect class="a" width="14.511" height="1.787" transform="translate(129.281 89.051) rotate(180)"/><rect class="i" width="41.348" height="1.787" transform="translate(106.654 83.131) rotate(180)"/><rect class="a" width="41.348" height="1.787" transform="translate(48.128 89.051) rotate(180)"/><rect class="i" width="22.593" height="1.787" transform="translate(54.756 83.131) rotate(180)"/><rect class="a" width="34.877" height="1.787" transform="translate(112.918 89.051) rotate(180)"/><rect class="g" width="6.345" height="1.787" transform="translate(63.079 83.131) rotate(180)"/><rect class="a" width="25.761" height="1.787" transform="translate(8.664 74.778)"/><rect class="a" width="41.348" height="1.787" transform="translate(37.027 74.778)"/><rect class="a" width="22.593" height="1.787" transform="translate(88.921 74.778)"/><rect class="a" width="31.253" height="2.166" transform="translate(5.985 102.536)"/><rect class="i" width="31.253" height="2.166" transform="translate(77.636 95.35)"/><rect class="i" width="17.603" height="2.166" transform="translate(12.942 95.35)"/><rect class="a" width="50.164" height="2.166" transform="translate(40.395 102.536)"/><rect class="i" width="50.164" height="2.166" transform="translate(111.395 95.35)"/><rect class="a" width="27.411" height="2.166" transform="translate(103.355 102.536)"/><rect class="i" width="42.312" height="2.166" transform="translate(32.791 95.35)"/><rect class="g" width="7.695" height="2.166" transform="translate(93.261 102.536)"/><rect class="g" width="6.345" height="1.787" transform="translate(80.602 74.778)"/><rect width="287.806" height="197.251" transform="translate(129.163 50.857)"/><rect class="j" width="287.806" height="16.849" transform="translate(129.163 50.474)"/><rect class="k" width="155.135" height="8.032" transform="translate(0 32.944)"/><text class="l" transform="translate(140.394 97.22)"><tspan x="0" y="0">&lt;/&gt;</tspan></text><rect class="i" width="48.086" height="3.333" transform="translate(152.678 114.032)"/><rect class="i" width="48.086" height="3.333" transform="translate(169.879 137.616)"/><rect class="a" width="48.086" height="3.333" transform="translate(262.921 125.087)"/><rect class="a" width="27.085" height="3.333" transform="translate(163.381 125.087)"/><rect class="i" width="77.185" height="3.333" transform="translate(205.62 114.032)"/><rect class="i" width="77.185" height="3.333" transform="translate(304.074 137.616)"/><rect class="a" width="77.185" height="3.333" transform="translate(314.865 125.087)"/><rect class="i" width="42.174" height="3.333" transform="translate(302.493 114.032)"/><rect class="i" width="75.677" height="3.333" transform="translate(223.127 137.616)"/><rect class="a" width="65.104" height="3.333" transform="translate(193.922 125.087)"/><rect class="i" width="11.84" height="3.333" transform="translate(286.964 114.032)"/><rect class="i" width="48.086" height="3.333" transform="translate(388.54 194.982) rotate(180)"/><rect class="a" width="48.086" height="3.333" transform="translate(278.297 206.033) rotate(180)"/><rect class="a" width="27.085" height="3.333" transform="translate(377.837 206.033) rotate(180)"/><rect class="i" width="77.185" height="3.333" transform="translate(335.594 194.982) rotate(180)"/><rect class="a" width="77.185" height="3.333" transform="translate(226.349 206.033) rotate(180)"/><rect class="i" width="42.174" height="3.333" transform="translate(238.721 194.982) rotate(180)"/><rect class="a" width="65.104" height="3.333" transform="translate(347.292 206.033) rotate(180)"/><rect class="i" width="11.84" height="3.333" transform="translate(254.254 194.982) rotate(180)"/><rect class="i" width="11.84" height="3.333" transform="translate(153.6 138.186)"/><rect class="a" width="48.086" height="3.333" transform="translate(152.678 179.384)"/><rect class="a" width="48.086" height="3.333" transform="translate(169.879 155.8)"/><rect class="i" width="48.086" height="3.333" transform="translate(262.921 168.329)"/><rect class="i" width="27.085" height="3.333" transform="translate(163.381 168.329)"/><rect class="a" width="77.185" height="3.333" transform="translate(205.62 179.384)"/><rect class="a" width="77.185" height="3.333" transform="translate(304.074 155.8)"/><rect class="i" width="77.185" height="3.333" transform="translate(314.865 168.329)"/><rect class="a" width="42.174" height="3.333" transform="translate(302.493 179.384)"/><rect class="a" width="75.677" height="3.333" transform="translate(223.127 155.8)"/><rect class="i" width="65.104" height="3.333" transform="translate(193.922 168.329)"/><rect class="a" width="11.84" height="3.333" transform="translate(286.964 179.384)"/><rect class="a" width="11.84" height="3.333" transform="translate(153.6 155.234)"/><rect class="m" width="83.502" height="33.342" transform="translate(262.529 30.848)"/><text class="n" transform="translate(276.53 54.848)"><tspan x="0" y="0">HTML</tspan></text><text class="o" transform="translate(5.013 65.68)"><tspan class="p" x="0" y="0">C</tspan><tspan y="0">SS</tspan></text></g></g></g></svg>