<svg xmlns="http://www.w3.org/2000/svg" width="474.199" height="385" viewBox="0 0 474.199 385"><defs><style>.a,.c{fill:#305bc9;}.b,.j{fill:#012656;}.b,.c,.k{stroke:#000;}.d,.f,.h,.m,.n,.p{fill:none;}.d,.f,.g,.h{stroke:#fff;}.e{fill:#f2f2f2;}.f,.g,.h,.l,.m,.n{stroke-miterlimit:10;}.g,.i,.k{fill:#fff;}.h{stroke-linecap:square;}.h,.n{stroke-width:2px;}.l{fill:#2b437f;stroke:#828d9e;}.m,.n{stroke:#012656;}.o{stroke:none;}</style></defs><g transform="translate(-1209 -3119)"><circle class="a" cx="192.5" cy="192.5" r="192.5" transform="translate(1254 3119)"/><g transform="translate(933.321 2927.286)"><g transform="translate(276.177 273.818)"><rect class="b" width="229.961" height="150.963" rx="4" transform="translate(0.97 0.476)"/><path class="a" d="M273.071,244.4H494.914a4.059,4.059,0,0,1,4.059,4.059v8.613a.044.044,0,0,1-.044.044H269v-8.66a4.059,4.059,0,0,1,4.059-4.059Z" transform="translate(-268.045 -243.927)"/><g class="c" transform="translate(-0.498 -0.104)"><path class="o" d="M4,0H229a4,4,0,0,1,4,4V14a0,0,0,0,1,0,0H0a0,0,0,0,1,0,0V4A4,4,0,0,1,4,0Z"/><path class="p" d="M4,.5H229A3.5,3.5,0,0,1,232.5,4v9a.5.5,0,0,1-.5.5H1A.5.5,0,0,1,.5,13V4A3.5,3.5,0,0,1,4,.5Z"/></g><ellipse class="d" cx="1.903" cy="1.903" rx="1.903" ry="1.903" transform="translate(5.514 5.225)"/><ellipse class="d" cx="1.903" cy="1.903" rx="1.903" ry="1.903" transform="translate(14.658 5.225)"/><ellipse class="d" cx="1.903" cy="1.903" rx="1.903" ry="1.903" transform="translate(25.327 5.225)"/><rect class="e" width="104.43" height="4.985" rx="2.492" transform="translate(52.129 5.225)"/><rect class="f" width="69.069" height="40.437" rx="20.218" transform="translate(12.028 30.418)"/><line class="f" x2="10.607" y2="9.326" transform="translate(25.287 66.319)"/><rect class="a" width="0.854" height="0.854" transform="translate(24.86 65.892)"/><rect class="a" width="0.854" height="0.854" transform="translate(30.163 70.555)"/><rect class="a" width="0.854" height="0.854" transform="translate(35.486 75.235)"/><rect class="a" width="127.225" height="49.433" transform="translate(91.542 86.334)"/><path class="g" d="M576.11,555.093l34.325-44L655.352,541.8,678.507,530c4.4,4.891,9.144,9.9,14.247,14.978q5.342,5.309,10.58,10.111Z" transform="translate(-484.568 -419.328)"/><circle class="g" cx="5.572" cy="5.572" r="5.572" transform="translate(166.758 101.731)"/><path class="h" d="M3.667.3,3.761,13.1Zm0-.295L0,3.171,3.666,0h0l3.667,3.17Z" transform="translate(151.488 61.027)"/><line class="f" x2="229.958" transform="translate(0.97 22.167)"/><line class="f" x2="229.958" transform="translate(0.97 143.094)"/><line class="f" x2="0.271" y2="138.542" transform="translate(7.462 13.484)"/><line class="f" x2="0.271" y2="138.542" transform="translate(224.557 13.484)"/><rect class="a" width="61.807" height="10.415" transform="translate(13.559 97.917)"/><rect class="a" width="61.807" height="10.415" transform="translate(13.559 114.76)"/><rect class="i" width="30.086" height="1.787" transform="translate(17.414 99.947)"/><rect class="i" width="13.787" height="1.787" transform="translate(17.414 103.006)"/><rect class="j" width="30.086" height="1.787" transform="translate(17.414 117.081)"/><rect class="j" width="13.787" height="1.787" transform="translate(17.414 120.14)"/><path class="g" d="M646.074,320.54v8.011c0,3.032,1.345,4.315,3.153,4.315,2.006,0,3.292-1.324,3.292-4.315V320.54h1.77v7.89c0,4.156-2.189,5.861-5.121,5.861-2.77,0-4.858-1.584-4.858-5.781v-7.964Z" transform="translate(-532.651 -284.984)"/><path class="g" d="M693.342,334.108l-1.725-2.994c-.7-1.145-1.145-1.885-1.566-2.655h-.041c-.381.785-.761,1.507-1.475,2.69l-1.628,2.973H684.9l4.13-6.849-3.976-6.684h2.026l1.787,3.171c.5.885.885,1.566,1.245,2.289h.062c.38-.8.723-1.425,1.224-2.289l1.846-3.171h2.009l-4.13,6.584,4.218,6.949Z" transform="translate(-561.269 -285.019)"/><path class="g" d="M741.7,320.48a25.224,25.224,0,0,1,3.714-.28c2.51,0,4.3.59,5.483,1.684a6.287,6.287,0,0,1,1.906,4.861A7.219,7.219,0,0,1,750.856,332c-1.257,1.245-3.354,1.947-5.982,1.947a28.334,28.334,0,0,1-3.174-.159Zm1.746,11.967a11.14,11.14,0,0,0,1.77.1c3.734,0,5.764-2.088,5.764-5.743.021-3.192-1.788-5.221-5.481-5.221a9.919,9.919,0,0,0-2.065.183Z" transform="translate(-601.315 -284.744)"/><path class="g" d="M794.017,327.728H788.77v4.879h5.861v1.475H787V320.54h7.309v1.475h-5.54v4.265h5.259Z" transform="translate(-633.253 -284.984)"/><path class="g" d="M818.649,331.4a6.212,6.212,0,0,0,3.133.885c1.788,0,2.832-.944,2.832-2.31,0-1.265-.723-1.988-2.549-2.69-2.209-.785-3.575-1.929-3.575-3.835,0-2.109,1.746-3.675,4.377-3.675a6.13,6.13,0,0,1,2.991.652l-.481,1.425a5.377,5.377,0,0,0-2.569-.643c-1.849,0-2.552,1.1-2.552,2.026,0,1.265.823,1.888,2.69,2.61,2.289.885,3.454,1.988,3.454,3.976,0,2.088-1.545,3.9-4.74,3.9a7,7,0,0,1-3.451-.864Z" transform="translate(-655.257 -284.445)"/><path class="g" d="M855.826,320.54v13.533H854.08V320.54Z" transform="translate(-680.546 -284.984)"/><path class="g" d="M878.722,333.124a12.536,12.536,0,0,1-4.156.743,6.357,6.357,0,0,1-6.946-6.826c.021-4.035,2.79-6.988,7.33-6.988a8.369,8.369,0,0,1,3.371.622L877.9,322.1a7.009,7.009,0,0,0-2.991-.59,5.06,5.06,0,0,0-5.439,5.442c0,3.4,2.065,5.46,5.218,5.46a5.712,5.712,0,0,0,2.33-.36v-4.029h-2.752v-1.4h4.457Z" transform="translate(-690.092 -284.64)"/><path class="g" d="M914.32,334.073V320.54h1.906l4.339,6.846a38.512,38.512,0,0,1,2.428,4.4l.041-.021c-.162-1.808-.2-3.454-.2-5.563v-5.66h1.646v13.533h-1.77l-4.3-6.867a42.823,42.823,0,0,1-2.528-4.519l-.062.021c.1,1.7.142,3.333.142,5.581v5.784Z" transform="translate(-723.017 -284.984)"/><rect class="k" width="229.961" height="150.963" rx="4" transform="translate(243.24 69.766)"/><path class="c" d="M1094.456,477.32H1316.3a4.059,4.059,0,0,1,4.056,4.059v8.613a.044.044,0,0,1-.044.044H1090.4v-8.657a4.059,4.059,0,0,1,4.059-4.059Z" transform="translate(-847.16 -407.849)"/><ellipse class="d" cx="1.882" cy="1.882" rx="1.882" ry="1.882" transform="translate(250.644 73.946)"/><rect class="i" width="104.43" height="4.985" rx="2.492" transform="translate(294.399 73.925)"/><rect class="l" width="69.069" height="40.437" rx="20.218" transform="translate(254.298 99.118)"/><rect class="a" width="127.225" height="49.433" transform="translate(331.485 99.956)"/><path class="j" d="M1389.57,601.283l34.325-44,44.921,30.709,23.152-11.8c4.4,4.891,9.144,9.9,14.247,14.978q5.344,5.309,10.58,10.111Z" transform="translate(-1058.085 -451.894)"/><circle class="j" cx="5.572" cy="5.572" r="5.572" transform="translate(406.701 115.356)"/><line class="m" x2="229.961" transform="translate(243.24 90.868)"/><line class="m" x2="229.961" transform="translate(243.24 211.795)"/><line class="m" x2="0.271" y2="138.539" transform="translate(249.732 82.187)"/><line class="m" x2="0.271" y2="138.539" transform="translate(466.827 82.187)"/><rect class="a" width="61.807" height="10.415" transform="translate(255.829 166.621)"/><rect class="a" width="61.807" height="10.415" transform="translate(255.829 183.46)"/><rect class="i" width="30.086" height="1.787" transform="translate(259.684 168.647)"/><rect class="i" width="13.787" height="1.787" transform="translate(259.684 171.706)"/><rect class="j" width="30.086" height="1.787" transform="translate(259.684 185.782)"/><rect class="j" width="13.787" height="1.787" transform="translate(259.684 188.841)"/><path class="j" d="M1440.674,786.24v8.011c0,3.032,1.345,4.315,3.15,4.315,2.009,0,3.295-1.324,3.295-4.315V786.24h1.77v7.893c0,4.156-2.189,5.864-5.12,5.864-2.77,0-4.858-1.587-4.858-5.784v-7.964Z" transform="translate(-1092.871 -613.319)"/><path class="j" d="M1487.942,799.78l-1.726-2.985c-.7-1.144-1.145-1.885-1.566-2.669h-.042c-.38.784-.764,1.507-1.475,2.69l-1.625,2.973H1479.5l4.129-6.846-3.973-6.687h2.056l1.77,3.165c.5.885.885,1.566,1.244,2.289h.059c.384-.8.723-1.425,1.227-2.289l1.847-3.171h2.008l-4.129,6.584,4.218,6.949Z" transform="translate(-1121.489 -613.326)"/><path class="j" d="M1536.3,786.145a25.227,25.227,0,0,1,3.714-.295c2.51,0,4.3.59,5.48,1.687a6.274,6.274,0,0,1,1.909,4.858,7.161,7.161,0,0,1-1.947,5.259,8.432,8.432,0,0,1-5.985,1.95,28.06,28.06,0,0,1-3.171-.162Zm1.746,11.967a11.089,11.089,0,0,0,1.77.1c3.734,0,5.764-2.088,5.764-5.743.018-3.192-1.788-5.218-5.484-5.218a9.969,9.969,0,0,0-2.047.18Z" transform="translate(-1161.535 -613.044)"/><path class="j" d="M1588.638,793.428h-5.262v4.879h5.864v1.475h-7.61V786.24h7.309v1.475h-5.563v4.277h5.262Z" transform="translate(-1193.494 -613.319)"/><path class="j" d="M1613.243,797.106a6.194,6.194,0,0,0,3.133.885c1.787,0,2.832-.944,2.832-2.309,0-1.265-.723-1.988-2.551-2.69-2.206-.784-3.572-1.929-3.572-3.834,0-2.109,1.746-3.675,4.377-3.675a6.138,6.138,0,0,1,2.991.664l-.48,1.425a5.4,5.4,0,0,0-2.572-.643c-1.847,0-2.548,1.1-2.548,2.029,0,1.262.823,1.885,2.69,2.607,2.289.885,3.454,1.988,3.454,3.976,0,2.088-1.548,3.9-4.74,3.9a7.022,7.022,0,0,1-3.454-.864Z" transform="translate(-1215.47 -612.782)"/><path class="j" d="M1650.419,786.24v13.533h-1.749V786.24Z" transform="translate(-1240.759 -613.319)"/><path class="j" d="M1673.322,798.824a12.525,12.525,0,0,1-4.156.743,6.353,6.353,0,0,1-6.946-6.825c.021-4.035,2.79-6.988,7.327-6.988a8.38,8.38,0,0,1,3.374.622l-.422,1.425a7.054,7.054,0,0,0-2.991-.59,5.062,5.062,0,0,0-5.442,5.442c0,3.4,2.065,5.46,5.221,5.46a5.72,5.72,0,0,0,2.33-.36v-4.026h-2.752v-1.413h4.457Z" transform="translate(-1250.313 -612.975)"/><path class="j" d="M1708.91,799.773V786.24h1.908l4.336,6.846a38.07,38.07,0,0,1,2.43,4.4l.041-.021c-.162-1.808-.2-3.454-.2-5.563v-5.66h1.646v13.533h-1.77l-4.3-6.867a43.381,43.381,0,0,1-2.531-4.519l-.059.021c.1,1.708.142,3.333.142,5.581v5.784Z" transform="translate(-1283.231 -613.319)"/><path class="j" d="M612.39,715.536l10.486-.136c.195,5.6-2.56,9.56-4.752,9.681C615.885,725.2,612.594,721.426,612.39,715.536Z" transform="translate(-510.147 -563.374)"/><path class="j" d="M1084.725,747.58l.2,15.3c-6.68.17-11.229-4.132-11.281-7.346S1078.019,747.742,1084.725,747.58Z" transform="translate(-841.533 -591.061)"/><path class="n" d="M631.83,748.22c7.669,22.1,16.105,28.11,22.68,29.222,9.6,1.622,13.6-7.477,38.756-17.45,14.453-5.726,21.677-8.589,30.841-7.1,9.492,1.54,14.371,6.368,23.942,5.071,6.542-.885,11.017-4.644,14.3-7.3" transform="translate(-523.852 -586.513)"/><path class="f" d="M1081.74,752.35l4.023,2.941-3.866,2.431" transform="translate(-845.309 -591.101)"/><g transform="translate(24.946 69.073) rotate(30)"><path class="a" d="M0,6.115Q.745,4.348,1.481,2.583L7.843,0,4.217,3.818A.891.891,0,0,0,2.867,4.957L.911,7.046Z" transform="translate(0 5.546) rotate(-45)"/><path class="a" d="M0,.931Q.745,2.7,1.481,4.463L7.843,7.046,4.217,3.228A.891.891,0,0,1,2.867,2.088L.911,0Z" transform="translate(6.377 10.528) rotate(-135)"/><rect class="a" width="2.769" height="1.939" transform="translate(4.225 10.035)"/></g><ellipse class="d" cx="1.903" cy="1.903" rx="1.903" ry="1.903" transform="translate(255.658 73.952)"/><ellipse class="d" cx="1.903" cy="1.903" rx="1.903" ry="1.903" transform="translate(260.611 73.952)"/></g></g></g></svg>