<svg xmlns="http://www.w3.org/2000/svg" width="385.189" height="392.467" viewBox="0 0 385.189 392.467"><defs><style>.a,.f{fill:#305bc9;}.b,.h{fill:#012656;}.b,.c,.d,.f{stroke:#012656;}.b,.d,.e,.f{stroke-miterlimit:10;}.c,.d{fill:#ffbd72;}.e,.g{fill:none;stroke:#000;}.g{stroke-width:2px;}</style></defs><g transform="translate(-1254 -3111.533)"><circle class="a" cx="192.5" cy="192.5" r="192.5" transform="translate(1254 3119)"/><g transform="translate(1026.72 3036.059)"><path class="b" d="M446.092,213.343l5.388,16.135s89.1-11.384,98.083,80.812c.284,2.89.646,5.78,1.1,8.641l10.208,65.284-279.808,2,11.335-95.046s5.672-58.025,86.376-61.7l9.15-20.308" transform="translate(-1.094 -1.665)"/><path class="c" d="M337.63,161l-10.485,23.3,37.116,25.778,36.158-25.454L392.1,162.924Z" transform="translate(50.669 43.395)"/><path d="M480.807,151.424s11.815-73.19-57.721-73.944-65.157,71.162-65.157,71.162l6.056,21.718,112.187,4.487Z" transform="translate(-2.657 -2)"/><path class="d" d="M370.913,173.837s1.587,11.374,10.218,24.051a44.442,44.442,0,0,0,8.268,9A71.436,71.436,0,0,0,407.013,217.4s46.935,16.468,62.952-43.565c0,0,3,3,6.005,2.332,2.763-.617,7.514-.382,10.061-14.411a9.124,9.124,0,0,0-3.194-8.905c-2.8-2.165-7.034-2.714-12.206,4.967l-8-26.01-.666,9.669s-24.08-11-24.374-20.014,0,15.008,0,15.008-26.313-27.685-27.313-39.353c0,0-38.686,37.619-39.353,61.336,0,0-7.377-11.746-13.157-8.7a7.445,7.445,0,0,0-2.949,3.311,14.467,14.467,0,0,0-.911,10.884C355.523,169.34,359.784,176.4,370.913,173.837Z" transform="translate(-2.563 0.615)"/><path class="e" d="M396.9,213.43" transform="translate(-3.451 -1.752)"/><path class="f" d="M417.215,254.783v3.125l-6.789,13.578a4.027,4.027,0,0,1-6.319,1.166L377.46,248.317a7.355,7.355,0,0,1-1.616-8.719l4.849-9.708Z" transform="translate(-3.007 -2.087)"/><rect class="f" width="44.692" height="8.004" transform="translate(450.719 311.515)"/><path class="f" d="M455.36,323.51v24.325a14.561,14.561,0,0,0,4.595,10.649c7.357,6.858,22.463,16.527,37.09-.95a12.863,12.863,0,0,0,3.008-8.258V323.51" transform="translate(-4.641 -3.992)"/><line class="e" x2="3.781" y2="52.637" transform="translate(515.974 330.197)"/><line class="e" x1="4.379" y2="51.344" transform="translate(316.781 332.94)"/><path class="e" d="M361.06,389.32" transform="translate(-2.722 -5.331)"/><path class="e" d="M481.98,120.94" transform="translate(-5.183 0.13)"/><path class="e" d="M271.36,170.66" transform="translate(-0.897 -0.881)"/><path class="e" d="M367.53,389.28" transform="translate(-2.854 -5.33)"/><path class="f" d="M458.2,248.317,431.55,272.652a4.027,4.027,0,0,1-6.319-1.166l-5.241-14.048c0-.823-.01-1.607-.02-2.351l34.993-25.2,4.849,9.708A7.355,7.355,0,0,1,458.2,248.317Z" transform="translate(-3.921 -2.087)"/><path class="e" d="M436.98,375.26" transform="translate(-4.267 -5.045)"/><path class="e" d="M235.79,388.87" transform="translate(-0.173 -5.322)"/><path class="e" d="M611.96,386.76" transform="translate(-7.827 -5.279)"/><path d="M559.774,387.78h34.014l18.682,83.045L227.28,472.892l18.672-83.045h34.014" transform="translate(0 -5.299)"/><path class="a" d="M375.06,415.43h5.133l8.337,28.841,9.17-28.841h4.506l-11,32.926h-5.182Z" transform="translate(-3.007 -5.862)"/><path class="a" d="M417.23,415.43H421.4v32.926H417.23V415.43Z" transform="translate(-3.865 -5.862)"/><path class="a" d="M443.79,448.366V419.045H433.66V415.41h24.511v3.566h-10v29.39Z" transform="translate(-4.199 -5.862)"/><path class="g" d="M314.876,327.128s-1.289-26.451,5.342-38.921,17.3-18.364,33.474-20.415,16.859-23.048,16.859-23.048V186.611" transform="translate(44.393 57.895)"/><ellipse class="h" cx="7.171" cy="9.503" rx="7.171" ry="9.503" transform="translate(408.202 226.305)"/></g></g></svg>